# xmcd CD database file
#
# Track frame offsets:
#	150
#	21042
#	39664
#	54149
#	68309
#	82545
#	102372
#	119454
#	136094
#	154830
#	175107
#	203510
#	217408
#	234530
#	248815
#	261530
#	276498
#	288671
#	305172
#	319231
#	336940
#
# Disc length: 4734 seconds
#
# Revision: 0
# Processed by: cddbd v1.5.2PL0 Copyright (c) Steve Scherf et al.
# Submitted via: CDex 1.51
#
DISCID=34127c15
DTITLE=Roomful Of Blues - (2010) Favorites
DYEAR=2010
DGENRE=Blues
TTITLE0=Backseat Blues
TTITLE1=Blind Love
TTITLE2=Hot Little Mama
TTITLE3=Money Talks
TTITLE4=Lillie Mae
TTITLE5=Just Like Dynamite
TTITLE6=That's My Life
TTITLE7=Turn It On, Turn It Up!
TTITLE8=We B 3
TTITLE9=Angry Woman
TTITLE10=Caravan
TTITLE11=If You Know It
TTITLE12=Just Keep On Rockin'
TTITLE13=Loan A Helping Hand
TTITLE14=Oh Oh Boogie
TTITLE15=Boogie Woogie Country Girl
TTITLE16=Up The Line
TTITLE17=Back On Front Street
TTITLE18=Tennessee Woman
TTITLE19=New Orleans
TTITLE20=Stranger Blues
EXTD=YEAR: 2010
EXTT0=
EXTT1=
EXTT2=
EXTT3=
EXTT4=
EXTT5=
EXTT6=
EXTT7=
EXTT8=
EXTT9=
EXTT10=
EXTT11=
EXTT12=
EXTT13=
EXTT14=
EXTT15=
EXTT16=
EXTT17=
EXTT18=
EXTT19=
EXTT20=
PLAYORDER=
